<?xml version="1.0" encoding="UTF-8" standalone="no"?>
<svg xmlns:xlink="http://www.w3.org/1999/xlink" height="319.95px" width="319.95px" xmlns="http://www.w3.org/2000/svg">
  <g transform="matrix(1.0, 0.0, 0.0, 1.0, 159.95, 159.95)">
    <path d="M92.2 120.0 L149.4 66.4 149.4 120.0 92.2 120.0 M-149.35 120.0 L-149.35 89.0 -119.5 120.0 -149.35 120.0" fill="#fff17a" fill-rule="evenodd" stroke="none"/>
    <path d="M160.0 -159.95 L160.0 160.0 -159.95 160.0 -159.95 -159.95 160.0 -159.95" fill="#000000" fill-rule="evenodd" stroke="none"/>
    <path d="M97.65 -150.0 L148.95 -150.0 148.95 -111.95 51.1 112.0 25.6 112.0 97.65 -150.0 M148.95 -8.75 L148.95 64.45 98.2 112.0 75.65 112.0 148.95 -8.75 M39.05 -150.0 L6.45 112.0 -6.45 112.0 -39.05 -150.0 39.05 -150.0 M-150.05 -114.45 L-150.05 -150.0 -97.65 -150.0 -25.55 112.0 -51.05 112.0 -150.05 -114.45 M-150.05 -10.55 L-75.65 112.0 -98.2 112.0 -150.05 63.4 -150.05 -10.55" fill="#ffb50e" fill-rule="evenodd" stroke="none"/>
    <path d="M97.65 -150.0 L25.6 112.0 6.45 112.0 39.05 -150.0 97.65 -150.0 M51.1 112.0 L148.95 -111.95 148.95 -8.75 75.65 112.0 51.1 112.0 M-150.05 -114.45 L-51.05 112.0 -75.65 112.0 -150.05 -10.55 -150.05 -114.45 M-25.55 112.0 L-97.65 -150.0 -39.05 -150.0 -6.45 112.0 -25.55 112.0" fill="#fff17a" fill-rule="evenodd" stroke="none"/>
    <path d="M130.95 48.8 L130.95 67.15 137.0 66.9 136.3 56.95 145.1 53.2 145.65 53.4 146.6 61.3 152.0 60.95 152.0 137.55 -151.45 137.55 -151.45 58.9 -142.4 57.3 -142.05 71.2 -136.75 71.0 -138.45 62.75 -129.9 61.4 -126.7 79.25 -124.0 78.85 91.55 77.55 91.55 48.55 113.75 48.55 114.0 54.85 119.2 56.35 122.45 45.4 122.25 46.1 130.95 48.8" fill="#000000" fill-rule="evenodd" stroke="none"/>
  </g>
</svg>
