<?xml version="1.0" encoding="UTF-8" standalone="no"?>
<svg
   xmlns:dc="http://purl.org/dc/elements/1.1/"
   xmlns:cc="http://creativecommons.org/ns#"
   xmlns:rdf="http://www.w3.org/1999/02/22-rdf-syntax-ns#"
   xmlns:svg="http://www.w3.org/2000/svg"
   xmlns="http://www.w3.org/2000/svg"
   xmlns:sodipodi="http://sodipodi.sourceforge.net/DTD/sodipodi-0.dtd"
   xmlns:inkscape="http://www.inkscape.org/namespaces/inkscape"
   height="314.6px"
   width="398.4px"
   version="1.1"
   id="svg10"
   sodipodi:docname="6.svg"
   inkscape:version="1.0.2 (e86c870879, 2021-01-15)">
  <metadata
     id="metadata16">
    <rdf:RDF>
      <cc:Work
         rdf:about="">
        <dc:format>image/svg+xml</dc:format>
        <dc:type
           rdf:resource="http://purl.org/dc/dcmitype/StillImage" />
      </cc:Work>
    </rdf:RDF>
  </metadata>
  <defs
     id="defs14" />
  <sodipodi:namedview
     pagecolor="#ffffff"
     bordercolor="#666666"
     borderopacity="1"
     objecttolerance="10"
     gridtolerance="10"
     guidetolerance="10"
     inkscape:pageopacity="0"
     inkscape:pageshadow="2"
     inkscape:window-width="1366"
     inkscape:window-height="743"
     id="namedview12"
     showgrid="false"
     inkscape:zoom="0.62709087"
     inkscape:cx="199.2"
     inkscape:cy="157.3"
     inkscape:window-x="0"
     inkscape:window-y="0"
     inkscape:window-maximized="1"
     inkscape:current-layer="g8" />
  <g
     transform="translate(198.8,314.6)"
     id="g8">
    <g
       transform="matrix(1.7888257,0,0,1.7888257,-14.319721,-141.16972)"
       id="g907">
      <path
         d="M 92.2,120 149.4,66.4 V 120 H 92.2 m -241.55,0 V 89 l 29.85,31 h -29.85"
         fill="#fff17a"
         fill-rule="evenodd"
         stroke="none"
         id="path897" />
      <path
         d="M 160,-159.95 V 160 H -159.95 V -159.95 H 160"
         fill="#000000"
         fill-rule="evenodd"
         stroke="none"
         id="path899" />
      <path
         d="m 97.65,-150 h 51.3 v 38.05 L 51.1,112 H 25.6 l 72.05,-262 m 51.3,141.25 v 73.2 L 98.2,112 H 75.65 L 148.95,-8.75 M 39.05,-150 6.45,112 h -12.9 l -32.6,-262 h 78.1 m -189.1,35.55 V -150 h 52.4 l 72.1,262 h -25.5 l -99,-226.45 m 0,103.9 74.4,122.55 H -98.2 l -51.85,-48.6 v -73.95"
         fill="#ffb50e"
         fill-rule="evenodd"
         stroke="none"
         id="path901" />
      <path
         d="M 97.65,-150 25.6,112 H 6.45 l 32.6,-262 h 58.6 M 51.1,112 148.95,-111.95 V -8.75 L 75.65,112 H 51.1 m -201.15,-226.45 99,226.45 h -24.6 l -74.4,-122.55 v -103.9 M -25.55,112 -97.65,-150 h 58.6 l 32.6,262 h -19.1"
         fill="#fff17a"
         fill-rule="evenodd"
         stroke="none"
         id="path903" />
      <path
         d="m 130.95,48.8 v 18.35 l 6.05,-0.25 -0.7,-9.95 8.8,-3.75 0.55,0.2 0.95,7.9 5.4,-0.35 v 76.6 H -151.45 V 58.9 l 9.05,-1.6 0.35,13.9 5.3,-0.2 -1.7,-8.25 8.55,-1.35 3.2,17.85 2.7,-0.4 215.55,-1.3 v -29 h 22.2 l 0.25,6.3 5.2,1.5 3.25,-10.95 -0.2,0.7 8.7,2.7"
         fill="#000000"
         fill-rule="evenodd"
         stroke="none"
         id="path905" />
    </g>
    <path
       d="m -74.75,-299.55 0.35,-0.15 v -0.05 q 0.5,-5.3 4.7,-9.1 4.85,-4.4 11.7,-4.4 7,0 11.85,4.4 3.1,2.85 4.15,5.9 1.7,0.8 2.85,1.6 -0.05,3.25 -0.6,6.4 l 1.2,1.75 q -0.3,3.85 -1,7.45 l -0.65,2.8 -4.15,1.65 -0.95,2.7 0.2,0.15 v -0.05 l 0.6,0.15 q 1.35,0.5 2.55,1.35 l 0.1,0.05 5,2.95 1.75,1.1 1.6,1.1 q 3,5.15 4.5,8.5 1.5,3.5 2.7,7.2 l 0.1,0.05 0.1,0.2 v 0.15 l -0.05,0.05 0.2,0.6 0.05,0.1 -0.15,0.2 -0.05,0.05 -0.5,-0.15 q -0.65,0.75 -1.8,1 l -0.6,0.2 -8.15,3.6 q -4,1.75 -7.75,3.9 l -7.8,4.5 q -3.85,2.25 -7.9,4.25 l -8.25,3.8 q -2.4,1.05 -4.9,1.7 -6.15,1.55 -12.45,0.85 l -0.95,-0.2 q -0.95,-0.3 -1.6,-0.8 l -0.45,-0.35 q -4.75,-4.45 -6.15,-10.05 -0.7,-2.7 -0.6,-5.65 1.1,-6.85 1.65,-11.4 l 0.55,-2.05 1.75,-5.95 3.7,-9.5 0.15,-0.1 q 1.9,-1.05 4.1,-1.65 l 4.4,-1.2 6.1,-1.7 h 0.1 q -0.6,-1 -0.65,-2.15 -1.95,-0.4 -3.35,-1.95 l -0.05,-0.1 -0.35,-0.65 -0.35,-4.2 q -0.1,-2.35 0.4,-6.55 1.1,-1.65 3.05,-2.3 m 11.25,-2.7 -0.3,0.15 -0.35,0.15 -0.5,0.35 -0.15,4.8 v 0.05 q 0.3,3.35 0.95,3.65 3.35,0.85 7.4,0.55 1.35,0 2.15,-0.6 l 0.5,-0.65 0.15,-0.1 0.9,-1.15 q 0.6,-1 1.55,-0.95 l 3.1,0.3 h 0.05 q 0.8,0 1.25,1 l 0.3,0.9 0.1,0.1 0.55,1.55 v 0.2 l 2.8,0.1 q 0.45,-0.55 0.6,-1.05 1.15,-3.65 0.7,-6.4 l -0.5,-1 q -10,-3 -21.25,-1.95 m 25.55,32.35 q -2.4,-1.2 -5,-1.8 l -1.7,3.4 q -3.35,2.7 -7.8,2.75 -4.25,0.05 -8.15,-1.5 -2.85,-1.15 -5.3,-2.9 l -2.1,-1.7 -2.25,-2.35 -0.6,-0.8 -6.5,0.95 q 1.8,5.15 2.2,8.25 l 0.75,5.9 q 0.35,2.85 0.05,8.85 l -5.25,-3.25 6.9,11.35 0.75,0.3 5.4,0.25 q 5.7,-1.15 10.9,-3.75 7.1,-3.55 14.5,-6.45 2.6,-1.05 4.8,-2.75 l 0.2,-0.35 h -0.15 l -0.35,-0.3 0.1,-0.3 -1.2,-5.85 q -0.4,-4.65 -0.2,-7.95 m -12.55,-22.75 h -0.25 l -0.1,0.15 -0.35,0.5 -0.4,0.65 -0.45,0.65 -0.35,0.5 -0.05,0.1 -2.05,0.55 -2,0.3 -1.3,0.15 h -0.25 q -1.05,0.15 -1.2,0.5 l -0.25,0.65 -0.05,0.45 v 0.15 0.05 0.05 l 0.05,0.1 0.05,0.35 0.25,1.05 0.25,0.75 0.6,1.7 q 0.55,0.75 1.4,1.2 l 1.65,0.85 1.7,0.5 0.6,0.05 h 1.05 0.5 l 0.6,-0.05 2.1,-0.55 q 0.95,-0.4 1.4,-0.75 l 0.55,-0.6 0.35,-0.85 0.6,-1.8 0.15,-0.45 0.3,-0.95 0.25,-1.45 -0.3,-0.4 -0.4,-0.2 -0.25,-0.15 -0.75,-0.2 -0.75,-0.25 -0.05,-0.1 -0.15,-0.45 -0.2,-0.7 -0.2,-0.75 -0.3,-0.75 -0.05,-0.35 -1.95,-0.2"
       fill="#000000"
       fill-rule="evenodd"
       stroke="none"
       id="path2" />
    <path
       d="m 66.65,-199.45 -0.15,-3.55 -17.55,9.25 -0.3,0.95 v 0.5 l 16.4,2.15 0.05,-0.15 0.2,-0.6 0.1,-0.45 0.1,-0.2 0.45,-1.4 -0.05,0.05 0.45,-2.35 v -0.05 -0.05 l 0.05,-0.35 0.25,-3.75 m -19.5,-28.2 11.55,-8.15 -1.6,-1.1 -93.75,-13.5 q -4.05,-0.25 -3.85,3.25 3.65,8.8 6.55,19.9 l 0.35,1.4 0.55,2.25 1.25,6.25 0.6,3.65 0.1,0.7 0.4,3.15 0.1,0.85 0.1,0.7 v 0.05 l 0.5,6.2 h 0.25 l 22.5,2.85 h 0.05 l 0.05,-0.6 -0.1,-7.8 -0.05,-0.65 -0.15,-1.6 -0.15,-1.7 -0.15,-1.45 -0.55,-4.35 q -0.8,-5.55 -3.2,-13.65 1.65,-2.1 3.9,-3.05 l 3.15,-0.7 51.6,7.1 m -9.65,13.7 -0.75,0.95 q -0.95,1.45 -1.25,3.15 l -0.05,0.15 -0.1,0.7 -0.05,0.75 0.05,0.9 q 0.1,1.5 0.6,2.85 l 0.2,0.5 75.75,-46.1 v -0.05 q -1.45,-2.55 -2.2,-5.4 -0.65,-2.35 -0.8,-4.9 -0.1,-1.75 0.05,-3.35 l -69.45,48.15 -0.1,0.05 q -1.05,0.65 -1.9,1.65 m -36.2,-14.3 -0.75,0.3 q 5.15,6.9 5.55,13.65 l 0.05,1.3 -0.05,3.15 -0.2,1.6 q -0.6,4.8 -2.75,9.1 l -0.6,1.15 22.25,2.6 0.1,-0.3 0.5,-1.55 0.95,-3.15 2.5,-7.85 0.55,-1.6 1.1,-3.15 q 1.3,-3.6 1.95,-4.45 l 8,-5.5 -39.15,-5.3 m 185.1,-71.8 q -7.2,-7.7 -17.65,-8.2 -8.45,-0.4 -15.3,3.9 l -5.55,4.15 q -12.25,9.6 -23.35,19.25 l -6.85,5.85 -0.45,0.45 q -1.9,2.1 -3,4.5 l -1.05,2.8 -0.05,0.05 v 0.05 0.05 0.05 l -0.05,0.05 q -0.45,1.4 -0.6,2.9 -0.2,1.7 -0.05,3.55 0.1,1.85 0.5,3.6 l 27.7,-19.05 q -0.35,-4.55 2.25,-9.55 l 0.05,3.1 q 0.1,2.5 0.7,5.25 v 0.05 q 0.9,3.65 3,6.95 1.3,2 3.05,3.9 1.6,1.7 3.4,3.1 l 0.55,0.4 0.85,0.6 0.15,0.05 q 5.55,3.65 12.7,4 4.85,0.25 9.1,-1.15 h 0.1 l 0.05,-0.05 h 0.05 q 4.7,-1.65 8.7,-5.3 7.6,-7 7.9,-17.25 0.25,-8 -3.95,-14.4 l 0.05,0.05 -2.95,-3.7 m 8.15,0.1 0.15,0.2 h -0.05 q 5.2,7.95 4.95,17.9 -0.3,9.15 -5.15,16.3 l -0.05,0.1 h -0.05 q -1.95,2.8 -4.65,5.4 -5,4.45 -10.75,6.55 h -0.15 l -36.5,15.6 v 0.05 l -0.15,0.05 -0.65,0.3 -0.1,0.05 q -3.95,1.5 -8.45,1.7 l -3.7,-0.1 -0.25,-0.05 -20.3,10.9 -17.6,9.4 -5.05,2.6 -0.4,0.25 H 85.6 l 2.95,8.85 q 1.2,4.05 2,8.2 l 0.4,2.3 0.65,5.25 9.6,1.2 -0.05,-0.05 h 0.05 q 1.55,0.2 2.65,1.4 l 0.05,0.05 h 0.05 l 0.45,0.6 0.4,0.7 0.3,1.3 v 0.2 l 0.5,8.35 18.45,1.15 3.75,0.35 q 13.7,1.4 23.55,3.7 l 0.35,0.05 0.1,0.05 q 6.9,2.1 12.85,6.95 l 4.2,3.8 q 3.9,4.1 7.4,9.55 l 1.45,2.35 1.9,3.45 1.8,3.65 0.05,0.05 1.05,2.5 v -0.05 l 1.15,2.65 0.05,0.05 q 0.85,1.8 1.3,3.8 v 0.05 l 0.05,1.15 v 0.1 q -0.2,1.75 -1.75,2.9 v 0.05 l -11.75,8.35 0.25,6.6 q 0.25,17.3 -2.95,34.4 -1.4,7.4 -3.55,14.55 -3.9,12.85 -10.2,24.8 -10.1,19.05 -27.3,32.05 l -0.4,0.3 q -3.55,2.7 -7.25,4.7 l -1,0.25 H -165.9 l -4.9,0.1 h -0.1 -0.2 l -0.4,-0.05 h -0.1 -0.05 l -2.85,-0.2 q -7.35,-1.2 -13.2,-7.9 -1.85,-2.15 -3.5,-4.75 l -0.05,-0.1 q -7.55,-11.85 -7.55,-28.25 0,-16.5 7.6,-27.85 l 0.1,-0.15 3.4,-4.7 q -0.2,-3.9 0,-7.5 0.35,-6.4 1.75,-12.05 7.15,-8 16,-16.85 l 0.8,-0.8 q 13.9,-13.85 31.85,-29.7 l 0.2,-11.3 0.6,-15 1,-15.25 0.6,-6.9 0.15,-1.55 0.5,-4.85 0.2,-1.55 0.65,-5.35 q 0.2,-1.8 1.55,-2.8 h 0.05 l 3.5,-2.85 0.95,-0.75 1.1,-0.85 4.1,-3.15 0.95,-0.7 q 6.7,-5.15 13.45,-9.9 l 5.2,-3.65 0.45,-0.3 10.5,-7.05 h -0.05 0.05 q 18.75,-10.7 20.45,-11.5 l 6.45,-3.2 7.3,-3.55 4.05,-1.9 q 7.9,-3.35 16.4,-2.75 l 95.5,14.2 h 0.05 q 0.9,0.1 1.75,0.65 l 3.85,2.7 0.05,-0.05 43.35,-30.5 0.1,-0.3 -0.05,0.1 0.9,-2.15 q 0.9,-2.05 2.3,-3.9 2.05,-2.85 4.85,-5 l 1.5,-1.15 v -0.05 l 0.2,-0.1 5.45,-4.4 18.35,-14.7 0.2,-0.25 5.2,-4.15 0.15,-0.2 0.6,-0.5 q 2.2,-1.9 4.75,-3.3 l 0.25,-0.15 q 7.45,-4.25 16.75,-3.85 12.9,0.55 21.8,10.05 l 0.05,0.05 0.05,0.05 0.1,0.05 3.2,4.1 0.25,0.3 m -18.65,-3.35 1.3,0.5 q 3.6,1.65 5.65,4 l -0.8,-0.35 q -3.35,-1.4 -5,-1.1 l -22.85,21.05 q 0.95,3.4 3.45,6.15 l 30.85,-17.85 q 1.65,1.9 1.7,6.05 l -0.05,0.6 -29.55,13.9 q 1.8,1.25 3.8,2 l 23.8,-7.05 q -0.6,2.75 -4.55,6.45 -6.15,5.65 -14.65,5.3 -4.8,-0.25 -8.75,-2.3 V -266 q -2.5,-1.35 -4.7,-3.45 l -0.8,-0.85 q -1.3,-1.4 -2.3,-2.9 l -0.05,-0.1 -0.1,-0.05 q -1.7,-2.7 -2.5,-5.75 -0.7,-2.8 -0.6,-5.8 0.25,-8.4 6.4,-14.1 6.2,-5.7 14.65,-5.3 l 5.65,1 M 80,-209 l -0.4,-0.9 -7.45,3.9 q 0.55,3.25 0.6,6.25 l -0.2,4.05 -0.05,0.5 -0.05,0.3 -0.5,2.8 -0.35,1.35 -0.45,1.35 13.85,1.75 -0.25,-2.35 -0.7,-4.85 -0.15,-0.85 -0.2,-1.05 -0.75,-3.2 Q 81.75,-204.7 80,-209 m 8.4,50.65 q -3.45,-1.45 -7.25,-2.5 l -51.2,-5 q 3.6,5.45 5.9,11.7 l 0.7,2 1.65,6.05 v 0.3 0.25 0.25 l -0.05,0.25 -0.6,1.1 -10.55,10.2 0.1,5 h 0.05 l 82.75,7.55 q 1.55,-16.25 -6.4,-26.25 v 0.05 q -5.85,-6.95 -15.1,-10.95 m 10.05,-16.4 -0.25,-5.35 -130.05,-15.75 -0.1,5.55 5.1,0.3 4.65,0.35 h 0.05 0.15 0.05 l 1.75,0.15 2.4,0.2 4.95,0.55 h 0.05 l 5.3,0.7 q 10.95,1.7 17.6,4.55 l 0.25,0.1 q 2.75,1.35 5.25,2.9 l 1.25,0.8 3.25,2.3 3.8,3.35 0.2,0.2 0.45,0.5 0.1,0.1 56.95,5.85 4.15,-5.1 q 1.9,-2.55 4.9,-2.5 l 7.8,0.25 m 51.4,11.9 q -9.3,-2.1 -22.05,-3.45 l -25.45,-1.8 -0.8,-0.05 h -0.25 -0.1 -0.65 l 0.65,0.25 0.9,0.4 q 8.25,3.65 13.65,9.15 7.95,8.05 9.75,19.9 l 51.5,4.9 q -2.75,-6.05 -6.35,-11.7 -5.3,-8.4 -11.9,-13.1 -4.2,-3 -8.9,-4.5 m -46.8,36.75 q -0.9,0.9 -2.2,0.95 -1.35,-0.05 -2.25,-0.95 -0.95,-0.95 -0.95,-2.25 0,-1.3 0.95,-2.2 0.9,-0.95 2.25,-0.95 1.3,0 2.2,0.95 0.9,0.9 0.95,2.2 -0.05,1.3 -0.95,2.25 m -19.45,-6.55 h -0.05 q 0.95,0.95 0.95,2.25 0,1.3 -0.9,2.25 h -0.05 q -0.9,0.9 -2.2,0.9 -1.3,0 -2.25,-0.9 -0.95,-0.95 -0.9,-2.25 -0.05,-1.3 0.9,-2.25 0.95,-0.95 2.25,-0.9 1.3,-0.05 2.25,0.9 m -71,-42.05 -3.3,-2.15 -3.5,-1.35 q -5.8,-2 -13.4,-3.2 l -11.95,-1.35 -0.65,-0.05 -1.8,-0.1 -0.7,-0.05 -11.2,-0.75 -7.75,-0.55 -7.05,-0.5 -8,2.5 q -7.8,2.7 -15.85,6.35 -19.85,8.95 -41.2,23.75 l -8,5.7 10.45,-5.7 q 31.35,-16.8 50.6,-23.25 l 8.5,-2.45 q 3.15,1.2 5.9,3.25 8.8,6.6 13.2,21.6 l 64.15,5.6 -1.6,-4.75 -1.15,-2.85 -1.15,-2.3 q -1.75,-3.35 -3.9,-6.5 v -0.05 l -2.6,-3.4 -3.5,-3.7 -1.55,-1.35 -3,-2.4 m 107.35,52 q 0.35,5.75 0.2,11.55 l -0.05,0.55 q -0.6,17.5 -4.7,34.6 l -0.7,2.85 q -3.5,14.1 -9.75,27.2 l -1.2,2.6 Q 97.6,-30.7 88.55,-20 l -6.75,7.3 -6.65,6 h 43.35 q 4.9,-3.2 9.3,-6.95 l 3.85,-3.45 -14.6,-0.25 q -0.45,0 -0.75,-0.3 -0.35,-0.35 -0.35,-0.75 -0.05,-0.5 0.25,-0.85 l 1.25,-1.35 0.1,-0.15 2.8,-3.45 0.4,-0.3 0.55,-0.1 16.15,0.25 0.7,0.25 q 4.05,-4.95 7.5,-10.6 l 3.6,-6.3 0.8,-1.6 -15.7,-0.7 q -0.4,-0.05 -0.65,-0.3 h -0.05 q -0.3,-0.25 -0.35,-0.65 l 0.05,-0.75 1.55,-3.05 v -0.05 l 0.15,-0.35 h 0.05 l 0.15,-0.45 0.45,-1 0.45,-0.5 0.65,-0.15 16.4,0.75 0.35,0.1 q 4.3,-9.8 7,-20.3 l -15.85,-0.9 q -0.35,-0.05 -0.6,-0.25 l -0.4,-0.55 v -0.65 l 1,-3.85 v -0.05 l 0.3,-1.15 0.45,-0.6 0.7,-0.2 15.9,0.9 h 0.15 q 2.25,-11.2 2.7,-22.55 l -14.7,-0.95 q -0.5,0 -0.8,-0.35 -0.3,-0.4 -0.3,-0.85 l 0.35,-4.6 v -0.05 l 0.05,-0.45 q 0.05,-0.5 0.4,-0.75 0.35,-0.3 0.8,-0.25 l 14.3,0.9 -0.05,-2.75 V -110 l -0.05,-1.15 -0.55,-7.5 -44.4,-4.05 m -83.4,-14.85 q 0.7,-0.4 1.55,-0.4 l 1.45,0.35 0.8,0.6 0.7,1.05 0.25,1.15 -0.25,1.2 -0.7,1.05 -0.8,0.6 -1.45,0.35 q -0.85,-0.05 -1.55,-0.4 l -0.65,-0.55 q -0.95,-0.9 -0.95,-2.25 0,-1.3 0.95,-2.2 l 0.65,-0.55 M 6.3,-117.2 q 0.4,-0.4 0.9,-0.35 l 15.3,1 v -16 l -53.6,-3.4 q 0,8.25 -0.4,16.5 l -0.4,7.05 -0.05,1.25 -0.05,0.8 q -1.45,18.15 -6.25,35.45 l -1.4,4.8 q -6.35,20.6 -18.6,38.8 -10.05,14.9 -23.8,24.6 h 54.45 q 3.8,-1.85 7.4,-4.15 l 3.45,-2.35 q 3.65,-2.7 6.9,-5.9 l -14.65,-0.2 q -0.5,-0.05 -0.85,-0.4 l -0.4,-0.8 0.3,-0.9 4.05,-5 0.45,-0.35 0.55,-0.1 16.25,0.25 0.75,0.25 q 3.7,-4.85 6.7,-10.2 l 1.9,-3.5 3.3,-6.65 0.4,-0.85 -15.4,-0.75 -0.75,-0.3 -0.45,-0.65 0.05,-0.8 2.2,-5 0.45,-0.55 0.75,-0.2 15.8,0.75 0.4,0.05 Q 14,-60.45 15.6,-66.05 l 2,-8.15 0.85,-3.9 -15.05,-0.85 -0.65,-0.3 -0.45,-0.55 -0.05,-0.7 1,-5 0.45,-0.75 q 0.4,-0.3 0.9,-0.25 l 15.1,0.9 h 0.15 q 1.9,-11.6 2.4,-23.35 l -15.55,-1 q -0.5,-0.05 -0.85,-0.4 -0.3,-0.35 -0.3,-0.8 v -0.15 l 0.35,-5.05 q 0,-0.55 0.4,-0.85 m 55.65,-17.6 q 0.9,0.95 0.95,2.25 -0.05,1.3 -0.95,2.2 v 0.05 q -0.9,0.9 -2.2,0.9 -1.3,0 -2.25,-0.95 v 0.05 q -0.95,-0.95 -0.95,-2.25 0,-1.3 0.95,-2.25 0.95,-0.95 2.25,-0.9 1.3,-0.05 2.2,0.9 m -81.95,-92.4 0.25,0.25 q 0.85,0.9 0.9,2.2 0.05,1.35 -0.75,2.3 h -0.05 l -0.55,0.5 q -0.45,0.3 -1,0.4 l -0.4,0.05 q -1.15,0 -2,-0.9 -0.85,-0.85 -0.9,-2.1 v -0.15 q -0.05,-1.3 0.8,-2.2 l 0.25,-0.3 0.1,-0.1 q 0.65,-0.6 1.6,-0.6 1,0 1.75,0.65 m -6.35,-17 q 1.15,0 2,0.9 0.85,0.9 0.9,2.25 v 0.25 q -0.05,1.15 -0.75,2 -0.5,0.55 -1.15,0.8 l -0.85,0.15 q -1.2,0 -2,-0.9 -0.9,-0.9 -0.9,-2.2 -0.05,-1.3 0.75,-2.25 0.8,-1 2,-1 m 5.55,34.65 0.6,-0.25 0.15,-0.05 0.55,-0.05 0.75,0.05 1.3,0.8 0.55,0.8 q 0.3,0.65 0.3,1.45 0.05,1.3 -0.75,2.25 -0.8,0.9 -2,0.95 l -0.85,-0.1 -0.5,-0.25 -0.4,-0.25 -0.25,-0.3 -0.55,-0.75 q -0.35,-0.65 -0.35,-1.45 l 0.3,-1.55 0.5,-0.7 0.65,-0.6 m -159.75,179.65 -1.1,-4.8 -6.75,-0.2 -0.15,-2.45 v -4.15 q 0.15,-3.5 0.85,-6.65 l 0.95,-3.5 -4,2.85 -0.05,0.1 q -0.75,3.55 -0.9,7.45 l -0.05,4.3 0.1,2.5 q 0.65,7.75 3.95,13.95 l 0.9,1.6 0.95,1.45 q 5.4,7.75 13.4,7.75 h 0.1 q 8.6,-0.05 15.2,-9.2 l 0.7,-1.05 1.1,-1.75 q 1.5,-2.55 2.6,-5.3 2.5,-6.45 2.95,-14.25 0.7,-13.05 -4.95,-22.3 -1.45,-2.35 -3.1,-4.1 l -0.15,-0.25 -2.55,-2.15 -4.8,3.35 q 4,1.75 6.95,6.7 4.6,7.65 4,18.5 v 0.05 q -0.55,10.8 -5.95,18.5 -2.3,3.2 -4.9,5.1 l -1,0.65 q -0.6,0.4 -1.25,0.7 -6.85,2.6 -12,-1.15 3.35,1.6 8.9,0.4 -4.25,-1.7 -7.35,-6.85 l -1.6,-3.2 -7.15,-0.2 -0.8,-2.6 6.95,0.2 m 129.4,-117.15 -6.7,4.75 1.65,2.5 q 5.25,8.8 6.1,20.35 l 0.2,4.45 -0.15,3.7 v 0.15 l -0.05,0.8 q -1.05,16 -9.15,27.45 -3.5,5 -7.45,7.9 l -0.15,0.1 -1.4,0.9 -1.95,1.1 q -10.5,4 -18.4,-1.8 5.15,2.5 13.65,0.65 l -1.8,-0.85 q -5.4,-2.85 -9.5,-9.7 -1.45,-2.4 -2.5,-4.95 l -10.95,-0.3 -1.25,-4 10.7,0.3 q -1.1,-3.5 -1.65,-7.35 l -10.4,-0.3 -0.3,-3.75 v -5.4 l 0.05,-0.45 -5.15,3.6 v 2.75 l 0.25,3.9 q 1.15,13.55 7.5,24 l 1.05,1.65 0.45,0.65 q 8.35,12.05 20.7,12.05 h 0.2 q 12.5,-0.15 22.3,-12.7 l 1.25,-1.65 1.05,-1.6 1.75,-2.7 q 2.3,-3.9 4,-8.2 3.8,-9.65 4.55,-21.3 l 0.05,-0.75 v -0.05 l 0.1,-3.6 -0.1,-4.7 q -0.85,-14.95 -7.7,-26.25 l -0.85,-1.35 m -78.8,101.9 -1,0.05 -2.35,0.55 q -3.3,1.2 -6.1,4.95 -2.95,3.9 -4.15,8.95 l -0.55,3.1 -0.15,1.4 -0.15,2.6 0.05,1.55 q 0.25,5.25 2.6,9.3 l 0.4,0.7 0.15,0.2 q 3.1,4.7 7.9,4.7 h 0.1 q 4.85,-0.05 8.8,-4.9 l 0.5,-0.7 0.45,-0.6 0.75,-1.05 1.65,-3.2 q 1.65,-3.9 2.05,-8.6 l 0.1,-1.4 q 0.3,-7 -2.65,-12.05 -0.8,-1.4 -1.75,-2.45 l -0.1,-0.15 q -2.75,-2.95 -6.55,-2.95 m -16.5,-24.2 1.95,2.7 12.1,-8.25 17.5,-11.75 q -1.75,-4.75 -1.95,-14.15 l -36.25,25.5 q 3.5,2 6.65,5.95 m 53.75,15.35 -1.2,0.05 -2.9,0.65 q -4.05,1.5 -7.6,6.1 -3.7,4.75 -5.35,10.95 l -0.75,3.8 -0.2,1.75 -0.25,3.15 v 1.9 q 0.2,6.45 2.95,11.45 l 0.45,0.8 0.2,0.25 q 3.7,5.75 9.6,5.8 h 0.05 q 5.95,-0.1 10.95,-6.05 l 0.65,-0.8 0.6,-0.75 0.9,-1.3 q 1.2,-1.9 2.1,-3.95 2.15,-4.75 2.75,-10.5 l 0.15,-1.75 q 0.55,-8.55 -2.9,-14.75 l -2.1,-3.05 -0.15,-0.15 q -3.3,-3.65 -7.95,-3.6 m -27.35,-11.4 -0.85,-1 -1.3,-2.1 -0.15,0.1 -0.05,-0.1 -8.9,5.45 0.8,5.05 12.15,-6 -1.7,-1.4 m -10.4,25.4 1.05,0.15 q 2.55,0.75 4.3,3.85 2.05,3.6 1.9,8.5 l -0.1,1.25 q -0.5,5.7 -3.5,9.75 -1.25,1.7 -2.65,2.75 l -0.05,0.05 -0.5,0.25 -0.65,0.4 q -3.65,1.35 -6.3,-0.6 l 4.1,0.3 0.6,-0.1 -0.6,-0.25 q -1.85,-1 -3.2,-3.35 l -0.8,-1.7 -3.75,-0.1 -0.35,-1.4 3.65,0.15 -0.45,-2.55 -3.6,-0.1 -0.05,-1.3 0.1,-2.2 0.15,-1.25 q 0.4,-3.05 1.6,-5.55 l 1.7,-2.95 q 3,-4.05 6.75,-4.05 l 0.65,0.05 m 37,-7.7 1.3,0.2 q 3.15,0.9 5.2,4.7 2.4,4.4 2.05,10.45 l -0.1,1.5 q -0.75,7 -4.55,11.95 -1.6,2.1 -3.3,3.35 l -0.1,0.05 -0.6,0.35 -0.85,0.45 q -4.5,1.7 -7.65,-0.75 1.85,0.95 5,0.4 l 0.7,-0.15 -0.7,-0.3 q -2.25,-1.2 -3.8,-4.1 l -0.95,-2.1 -4.6,-0.1 -0.4,-1.7 4.45,0.15 -0.5,-3.1 -4.4,-0.15 v -1.55 l 0.2,-2.7 0.15,-1.5 q 0.6,-3.75 2.15,-6.85 0.9,-1.95 2.15,-3.6 3.8,-4.95 8.4,-5 l 0.75,0.1"
       fill="#000000"
       fill-rule="evenodd"
       stroke="none"
       id="path4" />
    <path
       d="m 80,-209 q 1.75,4.3 2.95,9.05 l 0.75,3.2 0.2,1.05 0.15,0.85 0.7,4.85 0.25,2.35 -13.85,-1.75 0.45,-1.35 0.35,-1.35 0.5,-2.8 0.05,-0.3 0.05,-0.5 0.2,-4.05 q -0.05,-3 -0.6,-6.25 l 7.45,-3.9 0.4,0.9"
       fill="#ffffff"
       fill-rule="evenodd"
       stroke="none"
       id="path6" />
  </g>
</svg>
